<?xml version="1.0" encoding="UTF-8"?>
<svg id="b" data-name="ARTWORK" xmlns="http://www.w3.org/2000/svg" viewBox="0 0 200 200">
  <defs>
    <style>
      .c {
        fill: #4654f6;
      }
    </style>
  </defs>
  <path class="c" d="M6.59619,.00183C2.95898,.00183,0,2.96069,0,6.5979V193.40344c0,3.6366,2.95898,6.59558,6.59619,6.59558,3.63672,0,6.5957-2.95898,6.5957-6.59558V6.5979C13.19189,2.96069,10.23291,.00183,6.59619,.00183Z"/>
  <path class="c" d="M48.56836,100.00061c0-31.48596,2.4541-62.5553,7.29395-92.34509,.28271-1.73865-.12891-3.48364-1.15918-4.91296-1.02979-1.42981-2.55493-2.37244-4.29175-2.65417-1.73828-.28564-3.48218,.12671-4.9126,1.15649-1.4314,1.03064-2.37524,2.55591-2.65747,4.29517-4.95337,30.48706-7.46484,62.26819-7.46484,94.46057,0,32.19446,2.51172,63.97559,7.46582,94.46008,.52075,3.20996,3.25684,5.53931,6.50513,5.53931,.35425,0,.71289-.02917,1.06323-.08643,1.73926-.28247,3.26392-1.22559,4.29395-2.65479,1.03003-1.42993,1.44141-3.17493,1.15845-4.91357-4.84033-29.78613-7.29468-60.85486-7.29468-92.3446Z"/>
  <path class="c" d="M84.25073,100.00061c0-32.80273,9.28931-64.66553,26.15601-89.71838,.98462-1.46167,1.34082-3.21899,1.00317-4.94861-.33813-1.72864-1.3291-3.22327-2.79077-4.20715-1.46216-.9834-3.21826-1.33801-4.948-1.00256-1.72925,.33752-3.22314,1.32898-4.20679,2.79065-18.31763,27.20825-28.40576,61.6875-28.40576,97.08606s10.08813,69.87854,28.40576,97.08557c1.22705,1.82422,3.27368,2.91333,5.4751,2.91333,1.31494,0,2.5874-.38916,3.68018-1.12476,1.46118-.98389,2.45215-2.47852,2.79028-4.20752,.33765-1.72925-.01855-3.48706-1.00269-4.94763-16.86719-25.05334-26.15649-56.91614-26.15649-89.71899Z"/>
  <path class="c" d="M193.40381,186.80688c-40.84888,0-74.08228-38.94116-74.08228-86.80627S152.55493,13.19433,193.40381,13.19385c3.63721,0,6.59619-2.95898,6.59619-6.59595C200,2.96069,197.04102,.00183,193.40381,.00183c-48.12305,.00049-87.27441,44.85999-87.27441,99.99878s39.15137,99.99841,87.27441,99.99841c3.63721,0,6.59619-2.95898,6.59619-6.59607s-2.95898-6.59607-6.59619-6.59607Z"/>
  <path class="c" d="M193.40381,61.29516c3.63721,0,6.59619-2.95874,6.59619-6.59595s-2.95898-6.59595-6.59619-6.59595c-28.61621,0-51.89771,23.28125-51.89771,51.89734s23.28149,51.89734,51.89771,51.89734c3.63721,0,6.59619-2.95874,6.59619-6.59595s-2.95898-6.59595-6.59619-6.59595c-21.34253,0-38.70557-17.36304-38.70557-38.70544s17.36304-38.70544,38.70557-38.70544Z"/>
</svg>